<?xml version="1.0" standalone="no"?>
<!DOCTYPE svg PUBLIC "-//W3C//DTD SVG 20010904//EN"
 "http://www.w3.org/TR/2001/REC-SVG-20010904/DTD/svg10.dtd">
<svg version="1.0" xmlns="http://www.w3.org/2000/svg"
 width="1305.000000pt" height="507.000000pt" viewBox="0 0 1305.000000 507.000000"
 preserveAspectRatio="xMidYMid meet">
<metadata>
Created by potrace 1.15, written by Peter Selinger 2001-2017
</metadata>
<g transform="translate(0.000000,507.000000) scale(0.100000,-0.100000)"
fill="#000000" stroke="none">
<path d="M8015 3971 c-88 -16 -232 -103 -373 -226 -47 -40 -169 -212 -210
-295 -31 -63 -46 -110 -58 -182 l-16 -97 29 -52 c22 -42 40 -59 87 -85 75 -41
133 -48 311 -34 77 6 199 13 270 16 72 2 140 6 151 9 15 3 32 -6 58 -31 40
-39 51 -70 42 -115 -12 -60 -137 -205 -345 -399 -79 -74 -300 -237 -366 -272
-35 -18 -100 -54 -235 -128 -52 -29 -108 -60 -125 -69 -58 -32 -59 -33 -40
-43 11 -7 21 -6 28 1 6 6 19 11 29 11 16 0 55 17 68 30 5 5 33 16 130 52 30
12 67 29 82 39 14 11 29 19 33 19 4 0 26 12 49 28 22 15 55 34 71 42 45 21
225 151 225 161 0 5 7 9 15 9 8 0 61 44 117 98 57 54 127 120 157 147 75 70
163 191 178 245 7 25 12 66 13 92 0 40 -5 51 -38 86 -20 21 -47 44 -59 50 -27
15 -143 15 -444 1 -263 -12 -316 -6 -378 47 -26 22 -31 33 -31 69 0 197 137
410 392 612 31 24 63 46 70 47 7 1 39 10 71 20 33 9 71 16 85 14 l27 -3 -1
-158 c0 -178 6 -190 57 -106 26 41 29 57 35 170 7 122 6 125 -17 152 -27 31
-75 41 -144 28z"/>
<path d="M11111 3887 c-13 -15 -19 -30 -15 -40 3 -9 -3 -27 -14 -42 -27 -34
-39 -140 -21 -189 7 -20 16 -36 20 -36 9 0 27 48 35 95 11 75 26 106 49 103
19 -3 20 -11 21 -113 2 -103 -14 -220 -37 -270 -5 -11 -18 -50 -29 -87 -12
-38 -24 -68 -27 -68 -3 0 -3 43 0 95 4 55 3 97 -3 100 -6 3 -5 16 1 32 14 37
5 53 -31 53 -30 0 -30 -1 -32 -57 -4 -101 1 -162 13 -178 4 -6 10 -44 14 -85
5 -69 4 -79 -22 -127 -15 -28 -44 -71 -64 -95 -20 -24 -52 -63 -70 -87 -50
-66 -160 -145 -227 -165 -83 -23 -238 -52 -387 -70 -272 -33 -386 -44 -404
-39 -25 6 -75 -10 -186 -63 -180 -85 -242 -91 -327 -34 -47 32 -79 37 -100 17
-82 -81 -237 -172 -314 -184 -36 -6 -65 17 -96 75 -26 49 -68 44 -197 -24
-147 -78 -220 -152 -208 -211 3 -15 0 -35 -6 -44 -14 -23 -7 -30 34 -31 22 -1
36 5 43 17 34 58 116 142 177 181 38 24 75 44 82 44 7 0 26 -20 41 -45 26 -40
33 -45 66 -45 76 0 246 71 353 146 55 40 64 41 116 14 21 -12 54 -23 72 -26
55 -9 170 21 276 72 83 40 111 48 183 55 47 4 109 12 139 18 29 6 83 11 120
11 36 0 93 7 126 15 33 8 89 15 125 15 36 1 83 7 105 15 22 8 78 24 125 36
148 36 263 110 310 199 10 19 29 46 42 60 13 14 33 40 43 58 21 35 28 38 42
20 18 -23 21 -72 7 -101 -18 -33 -24 -30 116 -56 101 -20 402 -95 419 -105 10
-7 71 16 71 26 0 11 -80 44 -181 73 -52 14 -103 30 -114 35 -26 11 -137 37
-197 45 -53 7 -48 -5 -68 157 -9 74 -8 92 5 117 8 17 15 38 15 49 0 10 9 45
19 78 11 32 22 70 26 84 23 104 49 199 59 219 6 13 10 50 9 82 -2 48 0 57 12
53 31 -12 6 66 -31 97 -9 8 -23 29 -31 47 -10 25 -19 32 -41 32 -17 0 -38 -10
-51 -23z"/>
<path d="M4709 2783 c-37 -97 -107 -184 -269 -335 -69 -65 -143 -132 -165
-150 -21 -18 -67 -59 -101 -91 -59 -55 -61 -56 -71 -35 -6 13 -11 113 -12 223
-2 159 1 209 14 244 19 56 20 135 1 150 -8 7 -27 11 -43 9 -22 -2 -30 -10 -40
-41 -19 -57 -27 -335 -13 -447 17 -139 20 -229 9 -258 -5 -14 -23 -40 -39 -58
-16 -19 -34 -52 -41 -73 -16 -55 6 -91 56 -91 l35 0 0 -48 c0 -27 -5 -74 -11
-105 -9 -44 -16 -57 -30 -57 -13 0 -20 -10 -23 -32 -3 -18 -10 -60 -16 -93
-12 -71 0 -91 46 -81 50 11 94 117 109 266 4 36 10 89 13 119 l7 53 65 26 c86
33 196 35 256 4 44 -22 122 -107 142 -154 9 -23 18 -28 44 -28 74 0 455 148
488 190 9 11 90 40 112 40 12 0 35 -5 52 -11 52 -18 504 13 586 41 36 11 88
24 115 27 28 3 73 11 100 19 28 8 86 16 130 18 82 4 132 13 150 26 11 8 80 26
250 64 61 14 129 31 151 37 35 11 47 10 75 -4 19 -9 40 -25 47 -36 18 -31 60
-28 68 5 5 21 -1 33 -31 64 -21 22 -53 46 -71 55 -30 14 -37 14 -71 -1 -21 -9
-54 -20 -73 -24 -19 -4 -93 -20 -165 -35 -71 -15 -157 -36 -190 -47 -33 -12
-105 -25 -160 -29 -119 -10 -208 -27 -330 -64 -78 -23 -111 -27 -250 -31 -88
-1 -187 -6 -220 -9 -43 -5 -73 -2 -104 9 -41 15 -48 15 -110 -4 -37 -11 -82
-31 -101 -45 -31 -23 -67 -42 -147 -76 -13 -5 -33 -13 -45 -19 -52 -22 -115
-40 -144 -40 -16 0 -39 -7 -50 -15 -29 -22 -39 -18 -68 25 -77 116 -138 150
-271 149 -49 0 -110 -4 -135 -10 -118 -25 -110 -26 -110 15 0 37 8 50 85 129
42 43 78 75 180 162 157 133 384 376 385 411 0 6 7 17 15 24 18 15 20 71 3 88
-22 22 -58 14 -69 -15z"/>
<path d="M1733 2538 c-13 -6 -23 -18 -24 -27 -4 -62 2 -232 11 -311 5 -52 13
-126 16 -165 4 -38 10 -75 15 -80 4 -6 10 -55 14 -110 4 -55 10 -109 15 -120
11 -28 28 -119 35 -197 4 -37 10 -70 15 -73 4 -2 11 -31 15 -62 4 -32 16 -96
27 -143 11 -47 21 -89 22 -95 2 -5 10 -35 19 -65 14 -48 24 -102 26 -149 1
-10 11 -12 42 -8 46 6 59 19 59 60 0 39 22 87 60 130 55 63 105 45 137 -49 17
-51 44 -63 102 -45 57 17 119 76 187 179 1 2 38 -4 81 -12 84 -16 141 -12 288
19 39 8 132 24 208 35 76 11 173 32 215 46 102 33 302 66 377 62 50 -2 60 0
63 14 5 28 -42 40 -153 42 -118 1 -244 -15 -300 -38 -54 -23 -144 -41 -305
-61 -74 -9 -152 -23 -173 -31 -21 -8 -71 -14 -113 -14 -69 0 -80 3 -119 31
-35 25 -49 30 -74 24 -32 -7 -101 -77 -101 -103 0 -8 -12 -28 -26 -46 -52 -62
-104 -79 -104 -35 0 11 -6 22 -14 25 -8 3 -20 19 -26 35 -17 40 -36 48 -90 40
-57 -9 -87 -25 -127 -70 -40 -44 -47 -64 -34 -90 8 -15 7 -20 -6 -25 -9 -4
-17 -5 -17 -4 -9 14 -39 165 -52 253 -8 61 -19 133 -24 160 -22 132 -40 230
-63 345 -14 69 -25 148 -25 175 -1 28 -4 82 -8 122 -7 69 -6 71 16 75 17 2 24
11 26 32 2 16 8 34 13 39 19 19 12 66 -19 144 -16 41 -30 82 -30 92 0 22 -28
61 -43 60 -7 0 -22 -5 -34 -11z"/>
<path d="M12349 2466 c-2 -2 -67 -6 -144 -10 -77 -3 -198 -13 -270 -21 -71 -9
-184 -20 -250 -25 -66 -5 -142 -13 -170 -19 -27 -5 -95 -12 -150 -16 -55 -3
-140 -13 -190 -21 -94 -15 -301 -39 -470 -54 -55 -5 -145 -16 -200 -24 -55 -9
-140 -20 -190 -26 -99 -11 -307 -35 -425 -50 -41 -5 -133 -16 -205 -25 -71 -8
-152 -20 -180 -25 -53 -11 -57 -11 -420 -59 -126 -17 -277 -37 -335 -46 -58
-8 -159 -22 -225 -30 -66 -9 -169 -25 -230 -36 -60 -10 -157 -26 -215 -34 -58
-8 -130 -19 -160 -25 -30 -5 -107 -16 -170 -25 -63 -8 -153 -22 -200 -31 -47
-8 -130 -21 -185 -29 -410 -61 -504 -75 -535 -84 -44 -13 -218 -40 -330 -51
-122 -13 -191 -25 -220 -38 -14 -7 -72 -19 -130 -27 -121 -17 -312 -49 -385
-64 -92 -20 -336 -64 -475 -86 -47 -7 -96 -15 -110 -18 -14 -3 -77 -17 -140
-31 -63 -14 -171 -35 -240 -46 -69 -11 -201 -35 -295 -55 -93 -20 -195 -40
-225 -45 -30 -5 -102 -20 -160 -33 -58 -14 -127 -28 -155 -31 -27 -4 -61 -11
-75 -15 -14 -5 -56 -14 -95 -21 -165 -28 -233 -42 -285 -56 -63 -17 -209 -48
-324 -70 -44 -8 -109 -22 -145 -33 -36 -10 -111 -28 -166 -41 -55 -12 -122
-28 -150 -35 -27 -8 -86 -19 -130 -26 -44 -6 -84 -15 -90 -19 -10 -8 -256 -64
-330 -76 -22 -3 -77 -17 -122 -31 -46 -13 -106 -28 -135 -33 -29 -4 -98 -20
-153 -35 -55 -15 -120 -31 -145 -36 -25 -4 -81 -18 -125 -29 -44 -12 -107 -27
-141 -35 -34 -8 -72 -18 -85 -24 -13 -5 -67 -19 -119 -31 -52 -12 -135 -33
-185 -47 -49 -14 -139 -36 -200 -49 -60 -13 -135 -30 -165 -38 -30 -8 -57 -13
-59 -11 -1 2 8 39 22 82 46 144 57 266 33 372 -22 95 -21 121 3 121 11 0 60
-15 109 -34 77 -29 97 -34 139 -28 40 6 49 11 51 30 2 14 -8 37 -25 59 -63 80
-106 149 -211 333 -14 25 -35 59 -47 75 -11 17 -34 55 -49 87 -15 31 -36 64
-47 74 -27 24 -72 147 -114 313 -43 173 -47 181 -85 181 -36 0 -48 -33 -32
-88 18 -61 50 -213 57 -277 4 -33 14 -72 21 -87 8 -15 15 -40 15 -55 1 -15 8
-48 15 -73 7 -25 21 -85 30 -135 20 -111 30 -160 39 -203 8 -32 7 -33 -21 -26
-32 8 -166 71 -229 107 -22 13 -53 28 -70 34 -16 6 -56 23 -87 37 l-58 26 0
-38 c1 -41 2 -42 138 -97 64 -26 187 -90 212 -110 8 -7 43 -27 77 -45 70 -35
63 -20 83 -202 9 -86 6 -140 -10 -188 -5 -14 -11 -47 -14 -74 -3 -27 -10 -54
-16 -60 -5 -5 -10 -17 -10 -26 0 -17 -54 -100 -73 -112 -7 -4 -26 -8 -43 -8
-20 0 -39 -9 -58 -28 -29 -31 -25 -42 23 -57 14 -4 19 -10 13 -14 -22 -14 5
-34 37 -28 24 5 33 2 40 -12 15 -28 49 -33 72 -10 23 23 23 28 4 53 -22 29
-19 34 23 52 41 17 279 81 354 94 27 5 52 12 58 15 5 3 38 12 72 20 35 7 207
50 383 95 176 44 338 85 360 89 22 5 94 22 160 39 169 43 323 78 440 101 98
19 174 37 285 66 30 7 87 20 125 29 39 8 122 26 185 40 63 14 158 34 210 45
52 11 136 29 185 40 50 12 148 32 219 46 70 14 145 29 165 34 63 17 238 51
261 51 12 0 50 9 84 19 63 20 115 31 271 57 50 8 128 24 175 34 47 11 138 28
203 39 65 12 144 27 175 35 31 8 93 20 137 26 82 12 315 57 337 65 17 6 271
52 418 75 63 10 142 26 175 34 33 9 74 16 90 16 17 0 102 13 190 29 246 45
617 108 745 127 63 9 165 25 225 35 61 10 148 23 195 29 47 7 89 16 95 21 5 5
28 9 50 9 55 0 255 27 286 38 13 5 56 13 94 17 39 4 106 13 150 21 44 8 154
23 245 34 91 12 190 27 220 35 30 7 89 16 130 20 41 3 98 10 125 15 28 5 91
14 140 19 50 5 131 17 180 26 50 8 133 20 185 26 52 6 127 15 165 20 39 5 83
9 98 9 15 0 76 9 135 20 59 11 152 25 207 30 55 6 129 14 165 19 36 5 117 14
180 20 111 11 218 24 455 56 61 8 131 15 157 15 26 0 77 6 115 14 37 8 120 18
183 21 63 4 140 11 170 16 30 5 114 13 185 19 72 6 166 15 210 20 44 6 132 15
195 20 63 5 169 14 235 20 66 6 201 15 300 19 190 10 279 0 351 -36 37 -19
109 -13 132 11 53 53 -137 96 -424 96 -77 0 -143 -2 -145 -4z m-11796 -1066
c11 -25 20 -48 19 -52 -1 -5 3 -8 8 -8 6 0 19 -20 30 -44 10 -24 23 -47 29
-50 6 -4 22 -31 36 -61 14 -29 32 -58 40 -65 8 -7 12 -16 9 -21 -3 -5 0 -9 6
-9 6 0 9 -4 6 -9 -3 -5 -37 -3 -78 5 -66 13 -92 24 -94 42 -2 26 -29 173 -50
274 -8 37 -14 71 -14 75 1 14 31 -31 53 -77z"/>
<path d="M1283 1600 c-48 -10 -103 -36 -103 -50 0 -5 -8 -11 -17 -14 -10 -4
-25 -21 -35 -40 -15 -32 -15 -35 2 -64 24 -40 60 -58 143 -73 37 -7 67 -15 67
-18 0 -3 -7 -30 -14 -58 -8 -29 -12 -53 -9 -53 6 0 -34 -66 -61 -102 -59 -75
-75 -96 -118 -160 -40 -57 -48 -77 -48 -114 0 -28 5 -44 13 -45 36 -3 66 5
100 27 37 24 38 26 22 44 -22 24 -14 36 33 50 113 36 296 115 370 161 86 52
116 111 93 181 -20 59 -56 84 -164 111 -54 14 -100 27 -103 29 -2 3 -7 33 -11
68 -10 103 -60 140 -160 120z m277 -303 c48 -17 57 -23 73 -56 18 -35 6 -62
-43 -94 -45 -30 -269 -129 -282 -125 -5 2 3 17 17 33 41 47 82 135 105 224
l11 43 42 -6 c23 -4 58 -12 77 -19z"/>
</g>
</svg>
