<?xml version="1.0" standalone="no"?>
<!DOCTYPE svg PUBLIC "-//W3C//DTD SVG 20010904//EN"
 "http://www.w3.org/TR/2001/REC-SVG-20010904/DTD/svg10.dtd">
<svg version="1.0" xmlns="http://www.w3.org/2000/svg"
 width="777.000000pt" height="1600.000000pt" viewBox="0 0 777.000000 1600.000000"
 preserveAspectRatio="xMidYMid meet">
<metadata>
Created by potrace 1.15, written by Peter Selinger 2001-2017
</metadata>
<g transform="translate(0.000000,1600.000000) scale(0.100000,-0.100000)"
fill="#000000" stroke="none">
<path d="M5890 15996 c0 -3 26 -18 58 -34 31 -16 143 -72 247 -124 105 -53
244 -121 310 -153 112 -54 691 -337 726 -355 22 -12 295 -147 427 -212 l112
-56 0 469 0 469 -940 0 c-517 0 -940 -2 -940 -4z"/>
<path d="M3387 14859 c-15 -23 -27 -45 -27 -50 0 -5 -4 -9 -8 -9 -9 0 -31 -43
-80 -155 -51 -118 -70 -158 -106 -220 -19 -33 -51 -90 -70 -127 -40 -75 -29
-70 -208 -88 -66 -7 -112 -6 -145 1 -26 6 -74 14 -105 18 -32 4 -63 12 -70 19
-7 7 -19 12 -28 12 -16 0 -98 55 -112 75 -4 5 -8 24 -8 41 0 19 -9 39 -24 54
-26 23 -56 22 -56 -3 0 -8 -8 -21 -17 -28 -11 -9 -14 -10 -9 -2 5 9 2 11 -9 6
-12 -4 -16 -14 -12 -37 3 -21 -1 -36 -13 -46 -28 -25 -31 -49 -10 -70 24 -24
36 -25 56 -5 23 23 32 19 50 -22 15 -37 78 -269 94 -348 9 -48 34 -149 65
-265 13 -47 53 -206 90 -355 36 -148 77 -310 90 -360 13 -49 28 -112 34 -140
6 -27 22 -97 35 -155 14 -58 34 -150 45 -205 11 -55 32 -148 46 -205 15 -58
33 -134 41 -170 13 -65 28 -132 58 -265 9 -38 25 -113 35 -165 11 -52 29 -135
40 -185 12 -49 35 -157 51 -240 17 -82 41 -202 55 -265 14 -63 25 -126 25
-139 0 -13 9 -51 20 -85 10 -33 31 -126 45 -206 15 -80 33 -176 41 -215 7 -38
25 -133 39 -210 13 -77 31 -165 39 -195 8 -30 22 -104 31 -165 9 -60 18 -117
21 -126 2 -10 7 -30 9 -45 3 -16 9 -49 15 -74 16 -71 70 -353 91 -480 10 -63
25 -149 34 -190 8 -41 28 -158 45 -260 18 -102 49 -284 70 -405 21 -121 45
-272 54 -335 9 -63 25 -169 36 -235 11 -66 25 -154 30 -195 6 -41 15 -88 20
-105 5 -16 14 -84 21 -150 7 -66 16 -133 21 -150 10 -31 18 -83 62 -410 15
-104 33 -226 42 -270 8 -44 22 -132 29 -195 8 -63 17 -128 20 -145 3 -16 10
-68 15 -115 5 -47 16 -125 25 -175 15 -89 22 -144 50 -400 7 -71 21 -166 29
-210 9 -44 20 -125 26 -180 5 -55 14 -129 19 -165 5 -36 14 -117 20 -180 6
-63 18 -164 26 -225 37 -273 45 -345 45 -391 0 -27 7 -80 15 -119 8 -38 17
-119 20 -180 4 -60 11 -135 16 -165 5 -30 13 -113 19 -185 6 -71 15 -166 20
-210 6 -44 15 -132 20 -195 5 -63 14 -169 20 -235 24 -268 29 -476 14 -550 -9
-38 -22 -82 -30 -97 -20 -37 -18 -101 5 -129 18 -23 20 -23 38 -7 66 60 81
505 32 938 -11 96 -24 230 -29 298 -5 67 -12 126 -14 131 -3 4 -12 87 -21 184
-8 97 -20 198 -25 224 -10 49 -34 259 -50 438 -5 55 -14 127 -19 160 -6 33
-17 121 -26 195 -9 74 -22 189 -30 255 -8 66 -19 156 -24 200 -6 44 -17 139
-26 210 -8 72 -20 153 -25 180 -11 53 -12 59 -59 420 -17 127 -38 277 -46 335
-8 58 -24 170 -34 250 -11 80 -27 183 -36 230 -8 47 -22 132 -30 190 -8 58
-19 130 -25 160 -6 30 -20 118 -30 195 -18 128 -63 425 -75 485 -2 14 -14 93
-25 175 -12 83 -29 191 -40 240 -29 138 -50 288 -50 354 0 33 -4 63 -10 66 -5
3 -10 23 -10 44 0 21 -7 55 -16 76 -8 20 -17 60 -20 89 -2 28 -9 74 -14 101
-6 28 -19 104 -30 170 -11 66 -25 140 -30 165 -16 73 -27 134 -64 350 -19 113
-47 259 -61 325 -32 140 -30 130 -50 265 -9 58 -25 146 -35 195 -11 50 -31
149 -46 220 -14 72 -39 195 -56 275 -54 265 -70 343 -94 480 -9 52 -22 115
-29 140 -7 25 -20 79 -29 120 -8 41 -18 89 -22 105 -3 17 -12 59 -19 95 -6 36
-27 124 -44 195 -59 238 -80 329 -92 405 -7 41 -16 80 -21 86 -5 6 -27 100
-49 209 -22 109 -46 216 -54 239 -7 23 -18 68 -25 101 -12 64 -42 181 -66 255
-8 25 -14 54 -14 66 0 12 -12 66 -26 120 -14 54 -32 127 -40 162 -7 35 -18 71
-23 80 -4 9 -18 62 -31 117 -12 55 -29 125 -37 155 -42 158 -111 454 -107 459
1 1 38 -8 81 -22 144 -46 266 -57 372 -33 95 22 121 21 121 -3 0 -11 -15 -60
-34 -109 -29 -76 -34 -97 -28 -139 6 -42 10 -48 32 -51 23 -2 39 8 136 87 15
12 154 91 161 91 3 0 19 10 36 23 18 12 48 30 67 41 19 10 44 26 55 36 11 9
49 31 85 47 36 17 73 40 84 52 26 29 145 73 315 116 173 43 181 47 181 85 0
23 -5 31 -25 36 -14 3 -35 4 -48 1 -12 -3 -58 -14 -102 -25 -44 -11 -116 -25
-160 -32 -44 -6 -96 -18 -115 -26 -19 -8 -53 -16 -74 -19 -22 -2 -53 -9 -70
-14 -17 -6 -71 -18 -121 -27 -111 -20 -160 -30 -203 -39 -32 -8 -33 -7 -26 21
8 33 66 158 105 225 15 25 30 57 34 70 4 13 28 66 52 117 44 91 46 93 74 87
25 -6 30 -3 39 20 12 31 4 69 -17 87 -30 24 -49 18 -76 -23z m103 -650 c0 -10
-108 -64 -122 -61 -5 1 -8 -2 -8 -8 0 -5 -22 -19 -50 -31 -27 -12 -50 -25 -50
-30 0 -5 -24 -20 -54 -34 -30 -14 -59 -32 -66 -40 -7 -8 -16 -12 -21 -9 -5 3
-9 0 -9 -6 0 -6 -4 -9 -9 -6 -11 7 14 143 29 161 6 7 34 16 63 19 29 4 105 18
168 30 140 29 129 28 129 15z"/>
<path d="M2832 13624 c-12 -22 1 -76 28 -114 21 -29 23 -30 40 -15 24 22 36
14 50 -33 39 -124 108 -282 155 -357 71 -112 117 -135 202 -100 52 22 69 49
94 152 12 48 27 93 33 100 6 7 40 17 76 22 89 15 116 42 113 116 -2 56 -34
145 -52 145 -5 0 -12 8 -15 18 -4 9 -21 24 -40 34 -31 15 -35 15 -61 -2 -41
-27 -63 -67 -76 -142 -7 -37 -16 -68 -22 -68 -5 0 -34 7 -65 15 -76 21 -104
37 -188 104 -98 79 -207 138 -261 141 -1 0 -6 -7 -11 -16z m254 -238 c46 -36
140 -78 213 -96 l43 -11 -6 -42 c-12 -75 -32 -121 -66 -144 -26 -18 -36 -20
-55 -11 -25 11 -59 58 -84 113 -63 140 -99 225 -95 225 3 0 25 -15 50 -34z"/>
<path d="M4316 13013 c-3 -3 -158 -20 -256 -29 -36 -3 -74 -10 -85 -14 -11 -5
-65 -14 -120 -19 -55 -5 -131 -16 -170 -24 -38 -9 -100 -18 -137 -22 -37 -4
-70 -10 -73 -15 -2 -4 -30 -11 -62 -15 -57 -7 -211 -41 -312 -70 -48 -13 -99
-22 -138 -24 -14 -1 -17 -32 -7 -69 6 -22 14 -25 86 -37 22 -3 58 -23 88 -46
78 -61 66 -111 -36 -146 -109 -37 -48 -168 134 -289 2 -1 -4 -39 -12 -84 -17
-87 -14 -127 19 -285 8 -38 24 -135 36 -215 12 -80 25 -152 30 -161 32 -61 82
-335 77 -424 -3 -50 0 -60 14 -63 28 -5 40 42 42 153 1 118 -15 244 -38 300
-24 55 -42 146 -61 308 -9 76 -23 154 -31 173 -8 18 -14 66 -14 107 0 65 3 79
31 120 40 60 34 93 -25 142 -24 19 -49 35 -56 35 -16 0 -71 46 -92 78 -18 28
-9 52 19 52 7 0 16 6 19 14 3 8 19 20 35 26 39 16 50 38 42 86 -8 53 -25 84
-70 127 -44 43 -65 52 -92 38 -15 -8 -20 -7 -25 6 -4 9 -5 17 -4 18 10 6 156
36 218 45 121 16 278 43 515 89 83 16 173 29 200 29 28 1 82 4 122 8 70 7 71
6 75 -17 2 -18 10 -24 32 -26 16 -1 34 -7 40 -13 18 -18 65 -11 143 20 41 17
83 30 93 30 10 0 28 8 41 19 21 17 22 21 10 50 -8 17 -21 31 -30 32 -63 2
-213 4 -215 2z"/>
<path d="M3873 10775 c-16 -11 -23 -26 -23 -51 l0 -34 -48 0 c-27 0 -74 5
-105 11 -44 9 -57 16 -57 30 0 13 -10 20 -32 23 -18 3 -60 10 -92 16 -65 11
-86 3 -86 -34 0 -28 8 -38 50 -63 49 -30 105 -43 259 -62 l133 -16 26 -65 c33
-85 35 -196 4 -257 -22 -43 -107 -121 -154 -141 -22 -9 -28 -18 -28 -44 0 -55
100 -336 147 -413 66 -109 76 -135 74 -190 -10 -232 9 -549 38 -630 12 -33 24
-85 27 -115 3 -30 12 -77 20 -105 8 -27 16 -86 18 -130 4 -82 13 -132 26 -150
8 -11 26 -80 64 -250 14 -60 31 -129 37 -151 11 -35 10 -47 -4 -75 -9 -19 -25
-40 -36 -47 -31 -18 -28 -60 5 -68 21 -5 33 1 66 32 65 64 72 83 49 151 -26
82 -37 123 -61 248 -12 61 -31 137 -43 170 -11 33 -23 103 -28 155 -11 147
-27 222 -81 390 -6 19 -12 107 -14 195 -2 88 -6 186 -9 217 -5 41 -2 71 9 106
16 46 15 52 -4 113 -11 36 -33 83 -49 104 -17 22 -31 43 -31 47 0 4 -12 33
-26 65 -14 32 -30 67 -35 78 -17 37 -39 120 -39 146 0 14 -7 34 -15 45 -22 29
-18 39 25 68 116 77 150 138 149 271 0 50 -4 110 -10 135 -25 118 -26 110 16
110 23 0 45 -7 59 -20 103 -96 124 -119 231 -245 129 -153 375 -384 409 -385
5 0 18 -7 27 -16 39 -35 103 -12 97 35 -2 20 -13 29 -51 42 -60 22 -156 99
-277 224 -129 134 -131 136 -161 176 -14 19 -58 68 -97 110 -68 73 -70 77 -49
86 12 6 114 11 227 12 166 2 212 -1 242 -14 44 -18 129 -20 146 -3 7 7 12 24
12 39 0 22 -7 30 -39 42 -55 22 -327 33 -451 17 -160 -19 -229 -20 -272 -3
-21 8 -38 19 -38 23 0 15 -55 48 -90 55 -24 4 -42 1 -57 -10z"/>
<path d="M3986 7524 c-4 -10 -2 -22 4 -28 5 -5 10 -18 10 -28 0 -16 17 -55 30
-68 6 -6 25 -54 51 -128 10 -29 27 -66 39 -81 11 -16 20 -32 20 -36 0 -4 12
-26 28 -49 15 -22 34 -54 42 -71 21 -45 151 -225 161 -225 5 0 9 -7 9 -15 0
-8 44 -61 98 -117 54 -57 120 -127 147 -157 70 -75 191 -163 245 -178 25 -7
66 -12 92 -13 40 0 51 5 86 38 21 20 44 47 50 59 15 27 15 145 1 449 -11 220
-10 246 6 293 9 28 28 65 42 81 20 25 32 30 68 30 197 0 410 -137 611 -391 25
-32 46 -65 48 -75 3 -11 12 -41 21 -67 9 -27 15 -63 13 -80 l-3 -32 -158 1
c-136 1 -157 -1 -155 -14 2 -9 24 -28 49 -43 41 -26 57 -29 170 -35 124 -7
125 -7 154 19 28 24 30 30 28 92 -1 58 -8 81 -51 169 -88 181 -260 353 -453
455 -82 42 -116 53 -224 72 -68 11 -73 10 -121 -14 -28 -14 -59 -38 -70 -54
-59 -88 -70 -161 -54 -348 6 -71 13 -195 16 -275 3 -80 7 -150 9 -156 4 -13
-43 -67 -73 -83 -35 -19 -84 -12 -128 17 -80 54 -199 165 -344 321 -74 79
-237 300 -272 366 -18 35 -54 100 -128 235 -29 52 -61 110 -71 129 -26 48 -35
55 -43 35z"/>
<path d="M4138 6258 c-6 -37 1 -53 34 -72 48 -29 152 -137 171 -178 10 -20 22
-40 27 -43 22 -14 7 -42 -35 -68 -40 -26 -45 -33 -45 -66 0 -78 68 -241 148
-356 32 -45 34 -51 23 -80 -44 -107 -46 -122 -29 -204 9 -45 36 -120 64 -177
40 -84 49 -111 55 -184 4 -47 12 -109 18 -139 6 -29 11 -83 11 -120 0 -36 7
-93 15 -126 8 -33 15 -89 15 -125 1 -36 7 -83 15 -105 8 -22 24 -78 36 -125
36 -148 110 -264 199 -310 19 -10 44 -28 54 -39 11 -12 37 -32 58 -43 41 -23
45 -30 26 -45 -23 -18 -72 -21 -101 -7 -33 18 -31 23 -57 -116 -21 -115 -91
-387 -103 -408 -10 -15 13 -84 26 -79 26 8 128 338 152 490 7 47 19 52 148 66
83 10 102 9 127 -4 16 -8 39 -15 51 -15 12 0 49 -9 83 -19 97 -31 198 -60 236
-66 19 -4 50 -13 67 -21 23 -10 48 -13 84 -8 46 6 52 5 46 -9 -11 -28 26 -20
74 16 24 18 56 39 72 46 19 10 27 22 27 41 0 32 -40 73 -63 64 -9 -3 -27 3
-42 14 -34 27 -140 39 -189 21 -20 -7 -36 -16 -36 -19 0 -12 54 -31 102 -37
27 -3 51 -10 54 -14 3 -5 14 -9 25 -9 15 0 20 -6 17 -22 -3 -22 -7 -23 -113
-24 -111 -2 -172 9 -327 55 -115 34 -115 41 -3 40 55 0 107 -1 115 0 8 0 26
-1 40 -2 21 -2 25 3 28 31 l3 32 -58 2 c-99 3 -172 -2 -178 -13 -3 -4 -38 -10
-78 -14 -69 -7 -77 -5 -133 23 -32 17 -77 46 -99 65 -22 19 -60 50 -84 68 -61
47 -144 159 -164 222 -18 56 -59 288 -76 427 -20 161 -36 335 -33 364 3 35
-11 81 -50 161 -99 205 -108 268 -48 356 16 24 30 54 30 65 0 12 -17 40 -37
64 -59 65 -111 148 -139 222 -31 79 -27 112 17 136 91 50 92 72 14 220 -81
151 -153 221 -215 208 -16 -3 -32 -1 -35 4 -11 18 -33 10 -37 -12z"/>
</g>
</svg>
